<?xml version="1.0" encoding="utf-8"?>
<!-- Generator: Adobe Illustrator 25.0.1, SVG Export Plug-In . SVG Version: 6.00 Build 0)  -->
<svg version="1.1" id="Layer_1" xmlns="http://www.w3.org/2000/svg" xmlns:xlink="http://www.w3.org/1999/xlink" x="0px" y="0px"
	 viewBox="0 0 256 256" style="enable-background:new 0 0 256 256;" xml:space="preserve">
<style type="text/css">
	.st0{fill:#FFFFFF;}
</style>
<path d="M100.8,0.9c10.1,0,18.7,3.7,25.8,11s10.6,16.1,10.6,26.2v31.2c2.1-0.2,3.6-0.3,4.5-0.3c9.4,0,17.5,3.3,24.5,9.8
	c4.4-2,9.1-3,14-3c10.7,0,19.4,4.1,26.1,12.3c2.5-0.7,5.2-1,7.9-1c8.9,0,16.4,3.2,22.6,9.6c6.1,6.4,9.2,14,9.2,22.9v30.8
	c0,11-1.3,21.6-4,31.9l-13,52.2c-1.5,6-4.7,11-9.6,14.8c-4.9,3.8-10.5,5.7-16.7,5.7H100.8c-5.7,0-11.1-1.3-16.2-3.9
	c-5.2-2.6-9.4-6.1-12.8-10.6L17.2,168c-4.8-6.4-7.2-13.7-7.2-21.8c0-9.9,3.5-18.5,10.6-25.6s15.5-10.7,25.5-10.7
	c6.7,0,12.9,1.7,18.4,5V37.2c0-10,3.6-18.6,10.6-25.7C82.2,4.5,90.8,0.9,100.8,0.9L100.8,0.9z"/>
<path class="st0" d="M100.8,19.1c-5,0-9.3,1.8-12.8,5.3c-3.6,3.6-5.3,7.8-5.3,12.8v127.1l-21.4-28.7c-3.9-5.1-8.9-7.7-15.2-7.7
	c-4.9,0-9.1,1.8-12.6,5.4c-3.5,3.6-5.2,7.8-5.2,12.8c0,4.1,1.2,7.7,3.7,10.9l54.5,72.6c3.6,4.8,8.4,7.2,14.5,7.2h101.9
	c2.1,0,3.9-0.6,5.6-1.9c1.7-1.3,2.7-2.9,3.2-4.9l13-52.2c2.3-9.1,3.4-18.3,3.4-27.5v-30.8c0-3.9-1.3-7.2-4-10.1
	c-2.6-2.8-5.9-4.3-9.7-4.3s-7,1.3-9.6,4c-2.6,2.6-4,5.9-4,9.6h-4.5V110c0-4.5-1.5-8.4-4.5-11.6s-6.8-4.7-11.4-4.7
	c-4.4,0-8.1,1.6-11.2,4.7c-3.1,3.1-4.7,6.8-4.7,11.2v9.1H160v-12.8c0-5.2-1.7-9.7-5.2-13.4s-7.8-5.6-12.9-5.6c-5,0-9.3,1.8-12.8,5.3
	c-3.6,3.6-5.3,7.8-5.3,12.8v13.6h-4.5V38.1c0-5.2-1.7-9.7-5.2-13.4C110.2,20.9,105.9,19.1,100.8,19.1L100.8,19.1z"/>
<rect x="114.4" y="146.1" width="4.5" height="54.5"/>
<rect x="150.7" y="146.1" width="4.5" height="54.5"/>
<rect x="187" y="146.1" width="4.6" height="54.5"/>
</svg>
